<svg viewBox="0 0 220 220" xmlns="http://www.w3.org/2000/svg">
  <path d="M110 182V82" stroke="#7fffcf" stroke-width="7" stroke-linecap="round"/>
  <circle cx="110" cy="70" r="18" fill="#ffe98f"/>
  <ellipse cx="110" cy="42" rx="12" ry="26" fill="#ff6f91"/>
  <ellipse cx="110" cy="98" rx="12" ry="26" fill="#ff6f91"/>
  <ellipse cx="82" cy="70" rx="12" ry="26" fill="#ff5d6c" transform="rotate(90 82 70)"/>
  <ellipse cx="138" cy="70" rx="12" ry="26" fill="#ff5d6c" transform="rotate(90 138 70)"/>
  <path d="M110 130C82 130 58 108 60 68C88 68 110 90 110 130Z" fill="#56ffbc"/>
  <path d="M110 122C138 122 162 100 160 60C132 60 110 82 110 122Z" fill="#6effca"/>
  <ellipse cx="110" cy="188" rx="52" ry="14" fill="#14382f"/>
</svg>
